<?xml version="1.0" standalone="no"?>
<!DOCTYPE svg PUBLIC "-//W3C//DTD SVG 20010904//EN"
 "http://www.w3.org/TR/2001/REC-SVG-20010904/DTD/svg10.dtd">
<svg version="1.0" xmlns="http://www.w3.org/2000/svg"
 width="340.000000pt" height="340.000000pt" viewBox="0 0 340.000000 340.000000"
 preserveAspectRatio="xMidYMid meet">
<metadata>
Created by potrace 1.16, written by Peter Selinger 2001-2019
</metadata>
<g transform="translate(0.000000,340.000000) scale(0.100000,-0.100000)"
fill="#000000" stroke="none">
<path d="M642 2608 c-9 -9 -12 -221 -12 -895 0 -862 0 -883 19 -893 13 -7 370
-10 1085 -10 1053 0 1066 0 1086 20 20 20 20 33 20 886 0 577 -3 872 -10 885
-10 19 -33 19 -1093 19 -829 0 -1086 -3 -1095 -12z m1388 -893 l0 -735 -295 0
-295 0 0 735 0 735 295 0 295 0 0 -735z"/>
</g>
</svg>
