<?xml version="1.0" standalone="no"?>
<!DOCTYPE svg PUBLIC "-//W3C//DTD SVG 20010904//EN"
 "http://www.w3.org/TR/2001/REC-SVG-20010904/DTD/svg10.dtd">
<svg version="1.0" xmlns="http://www.w3.org/2000/svg"
 width="340.000000pt" height="340.000000pt" viewBox="0 0 340.000000 340.000000"
 preserveAspectRatio="xMidYMid meet">
<metadata>
Created by potrace 1.16, written by Peter Selinger 2001-2019
</metadata>
<g transform="translate(0.000000,340.000000) scale(0.100000,-0.100000)"
fill="#000000" stroke="none">
<path d="M1522 2350 c-18 -11 -50 -20 -72 -20 -59 0 -92 -16 -88 -43 2 -17 15
-26 57 -39 30 -10 64 -27 75 -37 12 -11 38 -27 59 -36 92 -38 -6 -150 -126
-143 -44 3 -54 7 -66 30 -14 25 -14 31 7 74 36 73 30 75 -195 85 -103 5 -263
13 -355 19 -186 11 -419 12 -488 2 -88 -13 -59 -55 147 -211 118 -89 243 -157
360 -196 70 -24 96 -40 190 -117 179 -148 298 -218 371 -218 8 0 12 -6 9 -12
-16 -44 -78 -330 -74 -342 4 -11 33 -15 129 -18 68 -2 128 0 134 4 6 5 14 39
16 76 6 77 20 106 60 123 34 14 77 -1 97 -34 8 -12 16 -52 19 -89 2 -37 10
-71 16 -76 6 -4 66 -6 134 -4 96 3 125 7 129 18 4 12 -58 298 -74 342 -3 6 1
12 9 12 73 0 192 70 371 218 94 77 120 93 190 117 117 39 242 107 360 196 206
156 235 198 147 211 -69 10 -302 9 -488 -2 -92 -6 -252 -14 -355 -19 -225 -10
-231 -12 -195 -85 21 -43 21 -49 7 -74 -31 -56 -169 -34 -215 35 -13 20 -18
43 -16 83 4 77 -20 116 -94 157 -72 39 -141 44 -192 13z"/>
<path d="M609 1341 c-23 -19 -23 -19 -5 -59 33 -74 90 -112 166 -112 44 0 55
11 46 45 -10 39 -56 85 -117 116 -32 16 -60 29 -63 29 -2 0 -14 -8 -27 -19z"/>
<path d="M2705 1333 c-61 -31 -100 -66 -115 -104 -18 -43 -7 -59 39 -59 77 0
134 38 167 112 18 40 18 40 -5 59 -29 23 -25 24 -86 -8z"/>
</g>
</svg>
