<?xml version="1.0" standalone="no"?>
<!DOCTYPE svg PUBLIC "-//W3C//DTD SVG 20010904//EN"
 "http://www.w3.org/TR/2001/REC-SVG-20010904/DTD/svg10.dtd">
<svg version="1.0" xmlns="http://www.w3.org/2000/svg"
 width="340.000000pt" height="340.000000pt" viewBox="0 0 340.000000 340.000000"
 preserveAspectRatio="xMidYMid meet">
<metadata>
Created by potrace 1.16, written by Peter Selinger 2001-2019
</metadata>
<g transform="translate(0.000000,340.000000) scale(0.100000,-0.100000)"
fill="#000000" stroke="none">
<path d="M1225 2431 c-91 -15 -205 -55 -315 -110 -29 -15 -20 -57 40 -191 34
-74 96 -216 137 -315 91 -219 228 -490 261 -516 40 -31 75 -24 132 26 114 101
182 126 279 101 82 -21 132 -48 219 -117 40 -33 80 -59 88 -59 8 0 23 9 35 21
29 29 22 54 -60 223 -38 77 -133 285 -210 461 -78 176 -145 327 -150 335 -14
26 -129 101 -187 121 -64 23 -193 32 -269 20z"/>
<path d="M722 2368 c-7 -7 -12 -22 -12 -34 0 -11 115 -300 256 -640 204 -492
267 -634 307 -693 28 -40 57 -75 64 -78 19 -8 43 16 43 42 0 29 -567 1397
-583 1407 -18 12 -62 9 -75 -4z"/>
<path d="M2397 2301 c-132 -65 -212 -81 -398 -81 -84 0 -159 -5 -170 -10 -23
-13 -26 -65 -6 -89 8 -9 78 -162 157 -341 206 -467 316 -682 368 -716 23 -15
33 -16 87 -5 69 14 100 9 167 -27 55 -29 94 -25 104 12 3 13 -15 149 -40 302
-68 419 -76 489 -83 744 -3 130 -10 241 -16 248 -18 22 -71 11 -170 -37z"/>
</g>
</svg>
