<?xml version="1.0" standalone="no"?>
<!DOCTYPE svg PUBLIC "-//W3C//DTD SVG 20010904//EN"
 "http://www.w3.org/TR/2001/REC-SVG-20010904/DTD/svg10.dtd">
<svg version="1.0" xmlns="http://www.w3.org/2000/svg"
 width="340.000000pt" height="340.000000pt" viewBox="0 0 340.000000 340.000000"
 preserveAspectRatio="xMidYMid meet">

<g transform="translate(0.000000,340.000000) scale(0.100000,-0.100000)"
fill="#000000" stroke="none">
<path d="M1077 2182 c-8 -9 -34 -52 -58 -95 l-44 -79 -112 7 c-97 6 -114 5
-119 -8 -3 -9 7 -59 22 -112 l27 -96 -72 -73 c-98 -99 -96 -109 26 -150 50
-17 95 -34 99 -38 4 -4 14 -54 23 -110 13 -84 19 -103 34 -106 10 -2 52 20 94
49 42 29 82 52 88 52 7 0 49 -26 95 -58 103 -73 110 -70 128 46 20 136 14 128
122 163 127 41 129 52 29 152 l-73 73 29 101 c21 77 25 104 16 113 -8 8 -47
11 -120 8 l-109 -3 -47 86 c-25 47 -50 88 -54 91 -5 2 -15 -3 -24 -13z"/>
<path d="M2377 2182 c-8 -9 -34 -52 -58 -95 l-44 -79 -112 7 c-97 6 -114 5
-119 -8 -3 -9 7 -59 22 -112 l27 -96 -72 -73 c-98 -99 -96 -109 26 -150 50
-17 95 -34 99 -38 4 -4 14 -54 23 -110 13 -84 19 -103 34 -106 10 -2 52 20 94
49 42 29 82 52 88 52 7 0 49 -26 95 -58 103 -73 110 -70 128 46 20 136 14 128
122 163 127 41 129 52 29 152 l-73 73 29 101 c21 77 25 104 16 113 -8 8 -47
11 -120 8 l-109 -3 -47 86 c-25 47 -50 88 -54 91 -5 2 -15 -3 -24 -13z"/>
</g>
</svg>
