<?xml version="1.0" standalone="no"?>
<!DOCTYPE svg PUBLIC "-//W3C//DTD SVG 20010904//EN"
 "http://www.w3.org/TR/2001/REC-SVG-20010904/DTD/svg10.dtd">
<svg version="1.0" xmlns="http://www.w3.org/2000/svg"
 width="340.000000pt" height="340.000000pt" viewBox="0 0 340.000000 340.000000"
 preserveAspectRatio="xMidYMid meet">

<g transform="translate(0.000000,340.000000) scale(0.100000,-0.100000)"
fill="#000000" stroke="none">
<path d="M1317 2572 c-15 -17 -17 -58 -17 -389 0 -332 2 -372 17 -384 13 -11
87 -14 384 -14 340 0 370 1 386 18 17 16 18 46 18 388 0 355 -1 371 -19 385
-16 11 -86 14 -386 14 -343 0 -368 -1 -383 -18z"/>
<path d="M1317 1572 c-15 -17 -17 -58 -17 -389 0 -332 2 -372 17 -384 13 -11
87 -14 384 -14 340 0 370 1 386 18 17 16 18 46 18 388 0 355 -1 371 -19 385
-16 11 -86 14 -386 14 -343 0 -368 -1 -383 -18z"/>
</g>
</svg>
