<?xml version="1.0" standalone="no"?>
<!DOCTYPE svg PUBLIC "-//W3C//DTD SVG 20010904//EN"
 "http://www.w3.org/TR/2001/REC-SVG-20010904/DTD/svg10.dtd">
<svg version="1.0" xmlns="http://www.w3.org/2000/svg"
 width="340.000000pt" height="340.000000pt" viewBox="0 0 340.000000 340.000000"
 preserveAspectRatio="xMidYMid meet">

<g transform="translate(0.000000,340.000000) scale(0.100000,-0.100000)"
fill="#000000" stroke="none">
<path d="M1732 2503 c-30 -6 -308 -259 -622 -568 -140 -137 -327 -320 -414
-405 l-159 -154 6 -207 c4 -113 11 -218 16 -232 13 -32 52 -44 80 -25 53 37
482 462 730 723 152 159 301 316 331 347 l55 58 230 -246 c281 -301 870 -882
901 -890 37 -9 61 11 68 58 3 24 6 129 8 234 l2 190 -165 159 c-90 88 -274
268 -409 400 -262 257 -561 534 -597 553 -12 7 -25 11 -30 11 -4 -1 -18 -4
-31 -6z"/>
</g>
</svg>
