<?xml version="1.0" standalone="no"?>
<!DOCTYPE svg PUBLIC "-//W3C//DTD SVG 20010904//EN"
 "http://www.w3.org/TR/2001/REC-SVG-20010904/DTD/svg10.dtd">
<svg version="1.0" xmlns="http://www.w3.org/2000/svg"
 width="340.000000pt" height="340.000000pt" viewBox="0 0 340.000000 340.000000"
 preserveAspectRatio="xMidYMid meet">

<g transform="translate(0.000000,340.000000) scale(0.100000,-0.100000)"
fill="#000000" stroke="none">
<path d="M1705 2659 c-22 -12 -218 -117 -436 -235 -218 -118 -402 -214 -407
-214 -28 0 -42 -45 -42 -131 0 -71 3 -89 18 -102 26 -24 44 -21 99 12 26 16
220 122 431 235 l382 206 383 -206 c210 -113 404 -219 430 -235 90 -54 117
-33 117 90 0 95 -8 116 -53 135 -18 7 -216 113 -441 234 -224 122 -416 224
-425 227 -9 3 -34 -5 -56 -16z"/>
<path d="M1705 2249 c-22 -12 -218 -117 -436 -235 -218 -118 -402 -214 -407
-214 -28 0 -42 -45 -42 -131 0 -71 3 -89 18 -102 26 -24 44 -21 99 12 26 16
220 122 431 235 l382 206 383 -206 c210 -113 404 -219 430 -235 90 -54 117
-33 117 90 0 95 -8 116 -53 135 -18 7 -216 113 -441 234 -224 122 -416 224
-425 227 -9 3 -34 -5 -56 -16z"/>
<path d="M1705 1849 c-22 -12 -218 -117 -436 -235 -218 -118 -402 -214 -407
-214 -6 0 -18 -10 -26 -22 -13 -19 -16 -57 -16 -219 0 -177 2 -197 18 -212 17
-16 94 -17 903 -17 692 0 889 3 909 13 l25 13 3 197 c1 125 -1 205 -8 217 -6
11 -25 26 -43 34 -18 7 -216 113 -441 234 -224 122 -416 224 -425 227 -9 3
-34 -5 -56 -16z m428 -435 c210 -114 386 -210 392 -215 5 -5 -324 -9 -775 -9
-431 0 -780 3 -776 7 6 6 765 421 774 422 1 1 174 -92 385 -205z"/>
</g>
</svg>
