<?xml version="1.0" standalone="no"?>
<!DOCTYPE svg PUBLIC "-//W3C//DTD SVG 20010904//EN"
 "http://www.w3.org/TR/2001/REC-SVG-20010904/DTD/svg10.dtd">
<svg version="1.0" xmlns="http://www.w3.org/2000/svg"
 width="340.000000pt" height="340.000000pt" viewBox="0 0 340.000000 340.000000"
 preserveAspectRatio="xMidYMid meet">

<g transform="translate(0.000000,340.000000) scale(0.100000,-0.100000)"
fill="#000000" stroke="none">
<path d="M3045 2409 c-114 -91 -299 -207 -440 -275 -354 -171 -857 -286 -1310
-301 -280 -9 -472 15 -823 102 -193 48 -213 48 -227 4 -13 -40 21 -57 210
-104 349 -86 554 -111 845 -102 497 16 1078 158 1440 354 150 81 411 265 424
299 9 24 -20 64 -47 63 -12 0 -44 -18 -72 -40z"/>
<path d="M2825 2004 c-256 -153 -464 -238 -795 -324 -221 -57 -215 -49 -130
-212 98 -186 173 -248 310 -256 122 -7 281 45 423 138 206 135 298 282 347
552 19 108 16 139 -19 157 -11 6 -21 11 -23 11 -2 0 -53 -30 -113 -66z m35
-185 c-31 -119 -82 -211 -161 -289 -61 -60 -195 -150 -246 -165 -22 -6 -22 -6
-7 32 26 60 15 148 -24 214 -18 30 -33 58 -33 63 0 5 46 28 103 51 106 43 272
125 343 169 22 13 41 21 43 16 2 -4 -7 -45 -18 -91z m-545 -230 c65 -87 58
-157 -23 -241 -29 -31 -43 -38 -74 -38 -53 0 -96 21 -140 66 -36 39 -114 171
-106 179 3 3 63 21 133 40 71 20 131 38 134 40 15 16 44 -1 76 -46z"/>
<path d="M582 1642 c-14 -14 -21 -46 -31 -133 -18 -167 -2 -235 76 -313 73
-75 213 -124 378 -133 233 -13 394 49 565 217 88 87 230 262 230 285 0 24 -36
58 -61 57 -13 0 -82 -8 -154 -18 -161 -23 -547 -26 -670 -5 -92 15 -272 49
-297 57 -9 3 -25 -3 -36 -14z m273 -133 c77 -13 143 -28 147 -33 12 -18 9 -79
-7 -134 -11 -34 -32 -69 -66 -106 -56 -62 -59 -62 -149 -24 -100 43 -135 99
-134 219 1 100 6 113 43 106 14 -3 89 -16 166 -28z m753 -41 c-61 -78 -162
-175 -226 -216 -89 -57 -169 -82 -286 -89 l-99 -6 31 39 c47 59 73 127 79 210
l6 74 136 1 c75 0 186 7 246 13 61 7 118 14 128 15 15 1 13 -7 -15 -41z"/>
</g>
</svg>
